<?xml version="1.0" encoding="UTF-8"?>
<svg version="1.1" xmlns="http://www.w3.org/2000/svg" width="175" height="164">
<path d="M0 0 C57.75 0 115.5 0 175 0 C175 54.12 175 108.24 175 164 C117.25 164 59.5 164 0 164 C0 109.88 0 55.76 0 0 Z " fill="#F9CB15" transform="translate(0,0)"/>
<path d="M0 0 C0.82437561 -0.00845947 1.64875122 -0.01691895 2.49810791 -0.02563477 C3.39898132 -0.01956207 4.29985474 -0.01348938 5.22802734 -0.00723267 C6.17949646 -0.01248962 7.13096558 -0.01774658 8.11126709 -0.02316284 C11.2623324 -0.03638716 14.41289423 -0.02761603 17.56396484 -0.01748657 C19.74967547 -0.0195066 21.93538544 -0.02241745 24.12109375 -0.02618408 C28.70432953 -0.03061074 33.28739004 -0.02416529 37.87060547 -0.01016235 C43.75226797 0.00692959 49.63351981 -0.00290975 55.51516724 -0.02087975 C60.0292471 -0.03170829 64.54322924 -0.02827549 69.05731201 -0.02049637 C71.22629851 -0.01849179 73.39529381 -0.02096262 75.56427002 -0.02793503 C78.59305403 -0.0355341 81.62116835 -0.02396671 84.64990234 -0.00723267 C85.55077576 -0.01330536 86.45164917 -0.01937805 87.37982178 -0.02563477 C88.20419739 -0.01717529 89.028573 -0.00871582 89.87792969 0 C90.59395355 0.00113108 91.30997742 0.00226215 92.04769897 0.00342751 C94.50746067 0.49443074 95.40460848 1.43416095 96.93896484 3.38095093 C97.31991577 5.54379272 97.31991577 5.54379272 97.32714844 8.08016968 C97.33660492 9.0312561 97.3460614 9.98234253 97.35580444 10.96224976 C97.34973175 11.98729614 97.34365906 13.01234253 97.33740234 14.06845093 C97.34027252 15.12250122 97.3431427 16.17655151 97.34609985 17.26254272 C97.34814197 19.49179623 97.34260183 21.7210676 97.33007812 23.95028687 C97.31402715 27.36768561 97.32992243 30.78390158 97.34912109 34.20126343 C97.34713869 36.36532855 97.34329507 38.52939293 97.33740234 40.69345093 C97.34347504 41.71849731 97.34954773 42.7435437 97.35580444 43.7996521 C97.34161972 45.22628174 97.34161972 45.22628174 97.32714844 46.68173218 C97.32476166 47.51873657 97.32237488 48.35574097 97.31991577 49.21810913 C96.84704053 51.90284951 96.12656154 52.78755872 93.93896484 54.38095093 C91.3588845 54.68034592 89.07436561 54.80035382 86.50146484 54.75595093 C85.18275391 54.7636853 83.86404297 54.77141968 82.50537109 54.77938843 C78.73676588 54.35836134 77.76440619 53.68449547 74.93896484 51.38095093 C72.49158223 50.90984838 72.49158223 50.90984838 69.93896484 51.00595093 C69.09333984 50.99821655 68.24771484 50.99048218 67.37646484 50.98251343 C64.87475328 51.16947026 64.87475328 51.16947026 63.23974609 52.88095093 C60.00567382 54.98941231 57.52662931 54.76935469 53.68896484 54.77938843 C52.99383789 54.78225861 52.29871094 54.78512878 51.58251953 54.78808594 C50.1166909 54.79012227 48.65083484 54.78462249 47.18505859 54.77206421 C44.94615707 54.75600252 42.70906047 54.7719255 40.47021484 54.79110718 C39.04312754 54.78912467 37.61604136 54.78528082 36.18896484 54.77938843 C34.24763672 54.77431274 34.24763672 54.77431274 32.26708984 54.76913452 C28.7419791 54.35797504 27.53568002 53.67322363 24.93896484 51.38095093 C22.49158223 50.90984838 22.49158223 50.90984838 19.93896484 51.00595093 C19.09333984 50.99821655 18.24771484 50.99048218 17.37646484 50.98251343 C14.86755536 51.18466191 14.86755536 51.18466191 13.09912109 52.88095093 C9.90418253 55.09949778 7.21523753 54.77846572 3.37646484 54.75595093 C2.70421875 54.76755249 2.03197266 54.77915405 1.33935547 54.79110718 C-3.5378208 54.76204754 -3.5378208 54.76204754 -5.75137329 53.14974976 C-7.44534461 50.86191152 -7.44114277 49.51384616 -7.44921875 46.68173218 C-7.45867523 45.73064575 -7.46813171 44.77955933 -7.47787476 43.7996521 C-7.47180206 42.77460571 -7.46572937 41.74955933 -7.45947266 40.69345093 C-7.46234283 39.63940063 -7.46521301 38.58535034 -7.46817017 37.49935913 C-7.47021229 35.27010562 -7.46467214 33.04083426 -7.45214844 30.81161499 C-7.43609746 27.39421624 -7.45199274 23.97800027 -7.47119141 20.56063843 C-7.469209 18.39657331 -7.46536538 16.23250893 -7.45947266 14.06845093 C-7.46554535 13.04340454 -7.47161804 12.01835815 -7.47787476 10.96224976 C-7.46369003 9.53562012 -7.46369003 9.53562012 -7.44921875 8.08016968 C-7.44683197 7.24316528 -7.44444519 6.40616089 -7.44198608 5.54379272 C-6.6867405 1.25589998 -4.10727461 0.00648811 0 0 Z " fill="#F9CB15" transform="translate(43.06103515625,53.619049072265625)"/>
<path d="M0 0 C0.92758118 -0.00700928 1.85516235 -0.01401855 2.81085205 -0.02124023 C5.86639652 -0.03879539 8.92100918 -0.02720606 11.9765625 -0.01367188 C14.10595883 -0.0163675 16.23535397 -0.0202505 18.36474609 -0.02526855 C22.82336163 -0.03116026 27.2816562 -0.02261099 31.74023438 -0.00390625 C37.45011952 0.01888283 43.15925255 0.00575803 48.86911011 -0.01819611 C53.26495003 -0.03266278 57.66061219 -0.02804404 62.05645752 -0.01768494 C64.16156097 -0.01502007 66.26668065 -0.01827895 68.37176514 -0.02760315 C71.31598554 -0.03778281 74.25899462 -0.02224735 77.203125 0 C78.50313446 -0.01214539 78.50313446 -0.01214539 79.82940674 -0.02453613 C85.23659743 0.05100778 88.30351157 0.94000379 92.6015625 4.51757812 C97.26059761 9.68564876 97.18885382 14.33551041 97.1328125 20.95507812 C97.13855286 22.45252563 97.13855286 22.45252563 97.14440918 23.98022461 C97.1471236 26.08480847 97.13979542 28.18942634 97.12304688 30.29394531 C97.10163114 33.50727873 97.12286515 36.71837638 97.1484375 39.93164062 C97.14579414 41.9811247 97.140669 44.0306074 97.1328125 46.08007812 C97.14090942 47.03648193 97.14900635 47.99288574 97.15734863 48.97827148 C97.05977635 55.95172791 95.70170928 59.35781314 90.7734375 64.38085938 C87.72138132 65.97824849 85.27027307 65.80763944 81.8515625 65.70507812 C80.68109375 65.67800781 79.510625 65.6509375 78.3046875 65.62304688 C77.41265625 65.58824219 76.520625 65.5534375 75.6015625 65.51757812 C75.7046875 66.71382813 75.8078125 67.91007812 75.9140625 69.14257812 C75.93226762 72.559073 75.41287526 74.31996215 73.2265625 76.95507812 C69.23154431 80.85497684 66.57154284 80.90832331 61.15234375 80.87695312 C57.04287746 80.29797778 55.38806673 78.51842883 52.6015625 75.51757812 C51.6015625 73.51757812 51.6015625 73.51757812 51.6015625 65.51757812 C43.0215625 65.51757812 34.4415625 65.51757812 25.6015625 65.51757812 C25.6015625 68.15757813 25.6015625 70.79757813 25.6015625 73.51757812 C24.06182498 76.61468376 21.72546312 78.95562782 18.6015625 80.51757812 C14.50998895 81.03270429 10.36566704 81.46125082 6.64453125 79.47070312 C4.50840563 77.70359191 2.84707079 76.00859471 1.6015625 73.51757812 C1.46740778 70.84521603 1.55837709 68.19507324 1.6015625 65.51757812 C0.73273437 65.57558594 -0.13609375 65.63359375 -1.03125 65.69335938 C-11.62020443 66.10791576 -11.62020443 66.10791576 -15.0859375 63.26757812 C-18.26915648 59.48212852 -19.64112672 56.89457958 -19.68896484 51.93603516 C-19.70172455 51.03474884 -19.71448425 50.13346252 -19.72763062 49.2048645 C-19.72985626 48.23813812 -19.73208191 47.27141174 -19.734375 46.27539062 C-19.7410318 45.27426239 -19.7476886 44.27313416 -19.75454712 43.2416687 C-19.76466567 41.12516109 -19.76936439 39.00862162 -19.76904297 36.89208984 C-19.77341225 33.66124635 -19.8097303 30.43177339 -19.84765625 27.20117188 C-19.8535254 25.14258279 -19.85749413 23.08398722 -19.859375 21.02539062 C-19.87374603 20.06271271 -19.88811707 19.10003479 -19.90292358 18.10818481 C-19.86434596 12.41807997 -19.37425261 8.91207428 -15.3984375 4.51757812 C-10.2537493 0.23629892 -6.40145435 -0.05980582 0 0 Z M-13.3984375 9.51757812 C-13.85167345 11.73072161 -13.85167345 11.73072161 -13.78662109 14.21679688 C-13.79607758 15.1678833 -13.80553406 16.11896973 -13.8152771 17.09887695 C-13.80920441 18.12392334 -13.80313171 19.14896973 -13.796875 20.20507812 C-13.79974518 21.25912842 -13.80261536 22.31317871 -13.80557251 23.39916992 C-13.80761463 25.62842343 -13.80207448 27.8576948 -13.78955078 30.08691406 C-13.77349981 33.50431281 -13.78939509 36.92052878 -13.80859375 40.33789062 C-13.80661135 42.50195574 -13.80276773 44.66602012 -13.796875 46.83007812 C-13.80294769 47.85512451 -13.80902039 48.8801709 -13.8152771 49.9362793 C-13.80582062 50.88736572 -13.79636414 51.83845215 -13.78662109 52.81835938 C-13.78423431 53.65536377 -13.78184753 54.49236816 -13.77938843 55.35473633 C-13.30651319 58.0394767 -12.58603419 58.92418592 -10.3984375 60.51757812 C-7.81835716 60.81697311 -5.53383827 60.93698101 -2.9609375 60.89257812 C-1.64222656 60.9003125 -0.32351562 60.90804687 1.03515625 60.91601562 C4.80376146 60.49498854 5.77612115 59.82112267 8.6015625 57.51757812 C11.0390625 57.11914062 11.0390625 57.11914062 13.6015625 57.14257812 C14.87 57.13097656 14.87 57.13097656 16.1640625 57.11914062 C18.6015625 57.51757812 18.6015625 57.51757812 20.30078125 59.01757812 C23.53485352 61.12603951 26.01389804 60.90598189 29.8515625 60.91601562 C30.89425293 60.92032089 30.89425293 60.92032089 31.95800781 60.92471313 C33.42383644 60.92674946 34.88969251 60.92124968 36.35546875 60.90869141 C38.59437027 60.89262972 40.83146687 60.9085527 43.0703125 60.92773438 C44.4973998 60.92575186 45.92448599 60.92190802 47.3515625 60.91601562 C48.64578125 60.91263184 49.94 60.90924805 51.2734375 60.90576172 C54.79854824 60.49460223 56.00484733 59.80985083 58.6015625 57.51757812 C61.0390625 57.11914062 61.0390625 57.11914062 63.6015625 57.14257812 C64.87 57.13097656 64.87 57.13097656 66.1640625 57.11914062 C68.6015625 57.51757812 68.6015625 57.51757812 70.44140625 59.01757812 C73.63634481 61.23612498 76.32528982 60.91509292 80.1640625 60.89257812 C80.83630859 60.90417969 81.50855469 60.91578125 82.20117188 60.92773438 C85.98633394 60.92650286 85.98633394 60.92650286 89.29190063 59.28637695 C90.98587196 56.99853872 90.98167011 55.65047336 90.98974609 52.81835938 C91.00393082 51.39172974 91.00393082 51.39172974 91.0184021 49.9362793 C91.01232941 48.91123291 91.00625671 47.88618652 91 46.83007812 C91.00287018 45.77602783 91.00574036 44.72197754 91.00869751 43.63598633 C91.01073963 41.40673282 91.00519948 39.17746145 90.99267578 36.94824219 C90.97662481 33.53084344 90.99252009 30.11462747 91.01171875 26.69726562 C91.00973635 24.53320051 91.00589273 22.36913613 91 20.20507812 C91.00607269 19.18003174 91.01214539 18.15498535 91.0184021 17.09887695 C91.00894562 16.14779053 90.99948914 15.1967041 90.98974609 14.21679688 C90.98616592 12.96129028 90.98616592 12.96129028 90.98251343 11.68041992 C90.50441757 8.96603961 89.7302192 8.22619745 87.6015625 6.51757812 C85.67709341 6.06977281 85.67709341 6.06977281 83.54052734 6.1366272 C82.71615173 6.12816772 81.89177612 6.11970825 81.04241943 6.11099243 C80.14154602 6.11706512 79.24067261 6.12313782 78.3125 6.12939453 C77.36103088 6.12413757 76.40956177 6.11888062 75.42926025 6.11346436 C72.27819494 6.10024004 69.12763312 6.10901117 65.9765625 6.11914062 C63.79085188 6.11712059 61.60514191 6.11420975 59.41943359 6.11044312 C54.83619782 6.10601646 50.2531373 6.1124619 45.66992188 6.12646484 C39.78825938 6.14355678 33.90700753 6.13371745 28.02536011 6.11574745 C23.51128024 6.10491891 18.9972981 6.10835171 14.48321533 6.11613083 C12.31422884 6.1181354 10.14523354 6.11566458 7.97625732 6.10869217 C4.94747332 6.10109309 1.91935899 6.11266049 -1.109375 6.12939453 C-2.01024841 6.12332184 -2.91112183 6.11724915 -3.83929443 6.11099243 C-4.66367004 6.1194519 -5.48804565 6.12791138 -6.33740234 6.1366272 C-7.05342621 6.13775827 -7.76945007 6.13888935 -8.50717163 6.1400547 C-10.96693333 6.63105793 -11.86408113 7.57078814 -13.3984375 9.51757812 Z " fill="#2B2C24" transform="translate(49.3984375,47.482421875)"/>
<path d="M0 0 C4.62 0 9.24 0 14 0 C14 6 14 6 13 7.875 C9.78179676 9.68523932 6.59783102 9.53967465 3 9 C1 7.875 1 7.875 0 6 C0 4.02 0 2.04 0 0 Z " fill="#F6C815" transform="translate(106,114)"/>
<path d="M0 0 C4.62 0 9.24 0 14 0 C14 6 14 6 13 7.875 C9.78179676 9.68523932 6.59783102 9.53967465 3 9 C1 7.875 1 7.875 0 6 C0 4.02 0 2.04 0 0 Z " fill="#F6C815" transform="translate(56,114)"/>
</svg>
